<?xml version="1.0" standalone="no"?>
<!DOCTYPE svg PUBLIC "-//W3C//DTD SVG 20010904//EN"
 "http://www.w3.org/TR/2001/REC-SVG-20010904/DTD/svg10.dtd">
<svg version="1.0" xmlns="http://www.w3.org/2000/svg"
 width="225.000000pt" height="225.000000pt" viewBox="0 0 225.000000 225.000000"
 preserveAspectRatio="xMidYMid meet">

<g transform="translate(0.000000,225.000000) scale(0.100000,-0.100000)"
fill="#000000" stroke="none">
<path d="M1110 1913 c0 -6 -12 -28 -26 -49 -15 -21 -19 -32 -10 -24 16 12 17
11 11 -11 -3 -13 -7 -34 -8 -47 -1 -12 -6 -21 -12 -18 -6 2 -11 -5 -11 -15 0
-17 2 -17 18 -2 10 9 16 18 13 21 -2 3 5 18 16 33 16 23 17 28 5 23 -12 -5
-15 -2 -10 10 4 10 13 15 20 12 8 -3 14 -1 14 4 0 5 -8 11 -17 13 -14 4 -14 5
3 6 23 1 41 -35 21 -42 -9 -3 -8 -11 1 -33 11 -25 10 -27 -1 -11 -17 21 -23
21 -31 1 -3 -8 -2 -12 4 -9 6 3 25 -11 44 -31 l35 -38 22 19 c12 11 19 15 16
9 -9 -16 19 -38 35 -28 10 5 10 4 1 -6 -10 -11 -16 -11 -31 3 -18 17 -32 14
-32 -6 0 -6 2 -8 5 -6 2 3 27 -15 53 -40 27 -26 93 -71 147 -101 110 -62 174
-114 206 -168 12 -20 24 -39 25 -41 7 -8 64 22 64 33 0 23 -62 106 -108 146
-26 22 -83 59 -127 82 -147 77 -246 159 -314 261 -23 33 -41 56 -41 50z m66
-120 c-9 -9 23 -35 35 -28 6 4 5 -2 -3 -14 -7 -12 -14 -17 -16 -11 -2 6 -7 8
-12 5 -4 -3 -14 3 -21 12 -10 12 -10 14 -1 9 15 -9 16 6 2 20 -6 6 -8 19 -4
28 6 17 8 17 16 1 6 -9 7 -19 4 -22z"/>
<path d="M1140 1324 c-9 -3 -21 -14 -28 -25 -13 -20 -12 -21 15 -15 15 3 41 2
57 -2 l29 -8 -43 -32 c-50 -36 -41 -44 10 -9 41 28 75 71 66 86 -7 10 -74 13
-106 5z"/>
<path d="M1628 1271 c-110 -59 -149 -84 -88 -58 19 8 54 21 76 27 23 7 61 30
85 51 24 21 42 38 39 38 -3 -1 -53 -27 -112 -58z"/>
<path d="M949 1203 c10 -4 4 -11 -20 -24 l-34 -18 38 6 c31 5 36 3 32 -10 -4
-9 -15 -13 -28 -11 -16 3 -13 0 8 -10 17 -9 39 -16 50 -16 16 -1 17 -3 5 -8
-14 -6 -14 -9 1 -24 16 -15 19 -13 39 35 29 67 20 81 -51 84 -30 1 -48 -1 -40
-4z"/>
<path d="M860 1180 c-11 -7 -11 -10 -2 -10 8 0 10 -5 6 -12 -4 -7 2 -4 14 6
12 11 22 21 22 23 0 7 -25 2 -40 -7z"/>
<path d="M1190 1121 c-52 -27 -122 -56 -155 -66 -33 -10 -71 -23 -84 -29 -24
-11 -24 -11 10 -17 33 -6 23 -13 -13 -10 -13 2 -16 -3 -11 -15 5 -13 2 -15
-17 -9 -16 5 -20 4 -15 -5 5 -8 23 -11 53 -7 41 4 44 4 23 -7 -12 -7 -36 -12
-52 -11 -34 2 -36 -1 -9 -15 16 -8 38 -1 117 39 122 61 212 101 228 101 8 0
15 -6 17 -12 5 -15 58 72 58 95 0 29 -50 19 -150 -32z m-146 -99 c2 -4 -11 -6
-30 -4 -19 2 -34 6 -34 8 0 8 59 4 64 -4z m-11 -39 c-7 -2 -19 -2 -25 0 -7 3
-2 5 12 5 14 0 19 -2 13 -5z"/>
<path d="M1695 1111 c-15 -30 -16 -49 -11 -128 6 -77 5 -94 -8 -99 -46 -18
-81 62 -70 163 6 56 5 57 -10 36 -32 -43 -48 -94 -41 -134 6 -32 3 -42 -19
-64 -30 -30 -47 -31 -71 -5 -23 25 -23 97 0 163 29 85 0 89 -97 15 -51 -39
-68 -57 -64 -71 3 -14 0 -17 -11 -13 -16 7 -69 -21 -59 -31 3 -3 12 2 21 11
22 21 41 21 24 -1 -8 -9 17 4 55 30 37 26 74 47 81 47 19 0 23 -21 12 -53 -5
-15 -10 -60 -11 -99 -1 -56 2 -73 16 -81 25 -17 69 3 93 40 25 40 40 41 54 3
16 -47 53 -41 114 20 l50 50 -7 88 c-3 48 -10 101 -15 117 l-8 30 -18 -34z
m-260 -31 c-3 -5 2 -11 12 -11 17 -1 17 -2 0 -6 -9 -2 -15 -8 -13 -12 3 -4 -1
-8 -9 -8 -18 0 -20 17 -2 18 8 0 8 2 -2 6 -11 5 -11 7 0 14 18 11 22 11 14 -1z
m-35 -44 c0 -2 -7 -7 -16 -10 -8 -3 -12 -2 -9 4 6 10 25 14 25 6z m-45 -27
c-4 -5 -16 -14 -28 -19 -21 -11 -21 -11 -3 4 11 9 16 16 12 16 -4 0 -4 5 -1
10 4 6 11 8 16 4 5 -3 7 -10 4 -15z m115 -153 c0 -2 -7 -7 -16 -10 -8 -3 -12
-2 -9 4 6 10 25 14 25 6z"/>
<path d="M895 1110 c19 -8 83 -14 74 -6 -2 2 -24 6 -49 9 -30 4 -38 3 -25 -3z"/>
<path d="M468 1073 c-30 -31 -35 -43 -17 -43 5 0 7 5 3 12 -5 7 -3 8 6 3 10
-6 9 -11 -4 -21 -9 -6 -13 -15 -8 -18 6 -3 20 2 32 12 16 13 21 26 18 51 l-3
33 -27 -29z"/>
<path d="M895 1030 c3 -5 1 -10 -6 -10 -7 0 -10 -2 -7 -5 7 -8 38 5 38 16 0 5
-7 9 -16 9 -8 0 -12 -4 -9 -10z"/>
<path d="M1219 903 c-13 -16 -12 -17 4 -4 9 7 17 15 17 17 0 8 -8 3 -21 -13z"/>
<path d="M871 896 c-10 -11 -9 -14 1 -12 14 2 23 15 15 22 -2 2 -10 -2 -16
-10z"/>
<path d="M784 818 l-19 -23 23 19 c21 18 27 26 19 26 -2 0 -12 -10 -23 -22z"/>
<path d="M1125 749 c-137 -11 -165 -16 -97 -18 39 -1 52 -5 52 -16 0 -8 -7
-15 -16 -15 -8 0 -12 -5 -9 -10 4 -6 1 -18 -6 -27 -12 -14 -3 -15 86 -8 55 3
144 10 199 16 280 26 381 -2 411 -116 l13 -50 7 47 c10 65 -1 102 -41 137 -57
50 -117 63 -314 66 -96 2 -224 -1 -285 -6z m72 -45 c-3 -3 -12 -4 -19 -1 -8 3
-5 6 6 6 11 1 17 -2 13 -5z m-29 -21 c-10 -2 -26 -2 -35 0 -10 3 -2 5 17 5 19
0 27 -2 18 -5z"/>
<path d="M816 575 c-11 -8 -16 -15 -10 -16 5 0 0 -4 -11 -9 -19 -8 -19 -8 5
-18 22 -9 22 -11 5 -12 -11 0 -29 -13 -39 -28 l-19 -27 24 23 c14 12 29 22 33
22 4 0 16 -10 26 -22 l19 -23 33 32 32 33 -29 30 c-32 34 -42 36 -69 15z"/>
<path d="M1102 550 c0 -19 2 -27 5 -17 2 9 2 25 0 35 -3 9 -5 1 -5 -18z"/>
<path d="M1532 550 c0 -19 2 -27 5 -17 2 9 2 25 0 35 -3 9 -5 1 -5 -18z"/>
<path d="M1622 550 c0 -19 2 -27 5 -17 2 9 2 25 0 35 -3 9 -5 1 -5 -18z"/>
<path d="M992 540 c0 -14 2 -19 5 -12 2 6 2 18 0 25 -3 6 -5 1 -5 -13z"/>
<path d="M1038 553 c6 -2 12 -11 12 -19 0 -8 5 -14 10 -14 7 0 7 6 0 20 -6 11
-16 20 -23 19 -9 0 -9 -2 1 -6z"/>
<path d="M1251 543 c7 -12 15 -20 18 -17 3 2 -3 12 -13 22 -17 16 -18 16 -5
-5z"/>
<path d="M1448 535 c-3 -14 -1 -25 3 -25 5 0 9 11 9 25 0 14 -2 25 -4 25 -2 0
-6 -11 -8 -25z"/>
<path d="M1677 539 c4 -13 8 -18 11 -10 2 7 -1 18 -6 23 -8 8 -9 4 -5 -13z"/>
<path d="M952 530 c0 -14 2 -19 5 -12 2 6 2 18 0 25 -3 6 -5 1 -5 -13z"/>
<path d="M1421 534 c0 -11 3 -14 6 -6 3 7 2 16 -1 19 -3 4 -6 -2 -5 -13z"/>
</g>
</svg>
